<svg width="96" height="35" viewBox="0 0 96 35" fill="none" xmlns="http://www.w3.org/2000/svg">
<path d="M60.0983 12.2686C60.0983 12.7983 60.0026 13.2562 59.8113 13.642C59.62 14.0279 59.3576 14.3255 59.024 14.5348C58.6905 14.7441 58.3095 14.8487 57.8811 14.8487C57.4527 14.8487 57.0718 14.7441 56.7382 14.5348C56.4047 14.3255 56.1422 14.0279 55.9509 13.642C55.7596 13.2562 55.664 12.7983 55.664 12.2686C55.664 11.7388 55.7596 11.281 55.9509 10.8951C56.1422 10.5093 56.4047 10.2117 56.7382 10.0024C57.0718 9.79311 57.4527 9.68847 57.8811 9.68847C58.3095 9.68847 58.6905 9.79311 59.024 10.0024C59.3576 10.2117 59.62 10.5093 59.8113 10.8951C60.0026 11.281 60.0983 11.7388 60.0983 12.2686ZM59.5096 12.2686C59.5096 11.8337 59.4369 11.4666 59.2914 11.1674C59.1475 10.8682 58.9521 10.6417 58.7052 10.488C58.4599 10.3343 58.1852 10.2575 57.8811 10.2575C57.577 10.2575 57.3015 10.3343 57.0546 10.488C56.8093 10.6417 56.614 10.8682 56.4684 11.1674C56.3245 11.4666 56.2526 11.8337 56.2526 12.2686C56.2526 12.7035 56.3245 13.0706 56.4684 13.3698C56.614 13.669 56.8093 13.8955 57.0546 14.0492C57.3015 14.2029 57.577 14.2797 57.8811 14.2797C58.1852 14.2797 58.4599 14.2029 58.7052 14.0492C58.9521 13.8955 59.1475 13.669 59.2914 13.3698C59.4369 13.0706 59.5096 12.7035 59.5096 12.2686ZM61.3344 9.75714L62.6293 11.8467H62.6686L63.9635 9.75714H64.6797L63.1002 12.2686L64.6797 14.78H63.9635L62.6686 12.7297H62.6293L61.3344 14.78H60.6182L62.2369 12.2686L60.6182 9.75714H61.3344Z" fill="#EBEAEF"/>
<path d="M71.4556 11.3268H70.8473C70.8113 11.1518 70.7484 10.9981 70.6585 10.8657C70.5702 10.7333 70.4623 10.6221 70.3347 10.5322C70.2088 10.4406 70.069 10.3719 69.9153 10.3261C69.7616 10.2804 69.6014 10.2575 69.4346 10.2575C69.1305 10.2575 68.855 10.3343 68.6081 10.488C68.3629 10.6417 68.1675 10.8682 68.0219 11.1674C67.8781 11.4666 67.8061 11.8337 67.8061 12.2686C67.8061 12.7035 67.8781 13.0706 68.0219 13.3698C68.1675 13.669 68.3629 13.8955 68.6081 14.0492C68.855 14.2029 69.1305 14.2797 69.4346 14.2797C69.6014 14.2797 69.7616 14.2568 69.9153 14.211C70.069 14.1652 70.2088 14.0974 70.3347 14.0075C70.4623 13.9159 70.5702 13.8039 70.6585 13.6715C70.7484 13.5374 70.8113 13.3837 70.8473 13.2104H71.4556C71.4098 13.4671 71.3264 13.6968 71.2054 13.8996C71.0844 14.1023 70.934 14.2748 70.7541 14.417C70.5743 14.5577 70.3723 14.6648 70.1483 14.7383C69.926 14.8119 69.6881 14.8487 69.4346 14.8487C69.0062 14.8487 68.6253 14.7441 68.2917 14.5348C67.9582 14.3255 67.6957 14.0279 67.5044 13.642C67.3131 13.2562 67.2175 12.7983 67.2175 12.2686C67.2175 11.7388 67.3131 11.281 67.5044 10.8951C67.6957 10.5093 67.9582 10.2117 68.2917 10.0024C68.6253 9.79311 69.0062 9.68847 69.4346 9.68847C69.6881 9.68847 69.926 9.72525 70.1483 9.79883C70.3723 9.87241 70.5743 9.98032 70.7541 10.1226C70.934 10.2632 71.0844 10.4349 71.2054 10.6376C71.3264 10.8387 71.4098 11.0685 71.4556 11.3268ZM72.9388 9.75714V14.78H72.36V9.75714H72.9388ZM75.5293 14.8585C75.1892 14.8585 74.8908 14.7776 74.6341 14.6157C74.379 14.4538 74.1796 14.2274 74.0357 13.9363C73.8934 13.6453 73.8223 13.3052 73.8223 12.9161C73.8223 12.5237 73.8934 12.1811 74.0357 11.8884C74.1796 11.5958 74.379 11.3685 74.6341 11.2066C74.8908 11.0447 75.1892 10.9638 75.5293 10.9638C75.8694 10.9638 76.167 11.0447 76.422 11.2066C76.6787 11.3685 76.8782 11.5958 77.0205 11.8884C77.1644 12.1811 77.2363 12.5237 77.2363 12.9161C77.2363 13.3052 77.1644 13.6453 77.0205 13.9363C76.8782 14.2274 76.6787 14.4538 76.422 14.6157C76.167 14.7776 75.8694 14.8585 75.5293 14.8585ZM75.5293 14.3386C75.7876 14.3386 76.0002 14.2723 76.167 14.1399C76.3337 14.0075 76.4572 13.8333 76.5373 13.6175C76.6174 13.4017 76.6575 13.1679 76.6575 12.9161C76.6575 12.6643 76.6174 12.4296 76.5373 12.2122C76.4572 11.9947 76.3337 11.8189 76.167 11.6849C76.0002 11.5508 75.7876 11.4838 75.5293 11.4838C75.271 11.4838 75.0584 11.5508 74.8916 11.6849C74.7249 11.8189 74.6014 11.9947 74.5213 12.2122C74.4412 12.4296 74.4011 12.6643 74.4011 12.9161C74.4011 13.1679 74.4412 13.4017 74.5213 13.6175C74.6014 13.8333 74.7249 14.0075 74.8916 14.1399C75.0584 14.2723 75.271 14.3386 75.5293 14.3386ZM80.4939 13.2398V11.0129H81.0728V14.78H80.4939V14.1424H80.4547C80.3664 14.3337 80.2291 14.4963 80.0427 14.6304C79.8563 14.7629 79.6208 14.8291 79.3363 14.8291C79.1009 14.8291 78.8916 14.7776 78.7085 14.6746C78.5253 14.5699 78.3815 14.413 78.2768 14.2037C78.1722 13.9927 78.1198 13.7271 78.1198 13.4066V11.0129H78.6987V13.3673C78.6987 13.642 78.7755 13.8611 78.9292 14.0246C79.0845 14.1881 79.2824 14.2699 79.5227 14.2699C79.6666 14.2699 79.8129 14.2331 79.9617 14.1595C80.1122 14.0859 80.2381 13.9731 80.3394 13.8211C80.4424 13.669 80.4939 13.4753 80.4939 13.2398ZM83.5554 14.8585C83.2415 14.8585 82.9643 14.7792 82.724 14.6206C82.4836 14.4604 82.2956 14.2347 82.1599 13.9437C82.0242 13.651 81.9563 13.3052 81.9563 12.9063C81.9563 12.5106 82.0242 12.1672 82.1599 11.8762C82.2956 11.5851 82.4844 11.3603 82.7264 11.2017C82.9684 11.0431 83.248 10.9638 83.5652 10.9638C83.8104 10.9638 84.0042 11.0047 84.1465 11.0864C84.2903 11.1666 84.3999 11.2581 84.4751 11.3611C84.5519 11.4625 84.6116 11.5459 84.6541 11.6113H84.7032V9.75714H85.282V14.78H84.7228V14.2012H84.6541C84.6116 14.2699 84.5511 14.3565 84.4726 14.4612C84.3942 14.5642 84.2822 14.6566 84.1366 14.7383C83.9911 14.8185 83.7974 14.8585 83.5554 14.8585ZM83.6339 14.3386C83.866 14.3386 84.0622 14.2781 84.2225 14.1571C84.3827 14.0344 84.5045 13.8652 84.5879 13.6494C84.6713 13.4319 84.713 13.1809 84.713 12.8964C84.713 12.6152 84.6721 12.3691 84.5904 12.1582C84.5086 11.9457 84.3876 11.7805 84.2274 11.6628C84.0672 11.5434 83.8693 11.4838 83.6339 11.4838C83.3886 11.4838 83.1842 11.5467 83.0207 11.6726C82.8588 11.7969 82.737 11.9661 82.6553 12.1803C82.5752 12.3928 82.5351 12.6316 82.5351 12.8964C82.5351 13.1646 82.576 13.4082 82.6577 13.6273C82.7411 13.8448 82.8638 14.0181 83.0256 14.1473C83.1891 14.2748 83.3919 14.3386 83.6339 14.3386Z" fill="#EC4900"/>
<path d="M47.388 20.2332V8.17822H54.6163V9.47318H48.8478V13.5464H54.0747V14.8414H48.8478V20.2332H47.388Z" fill="#FF5400"/>
<path d="M51.1865 20.5225V17.5087H51.6495V20.5225H51.1865ZM51.4219 17.0064C51.3317 17.0064 51.2539 16.9757 51.1885 16.9142C51.1244 16.8527 51.0923 16.7788 51.0923 16.6925C51.0923 16.6062 51.1244 16.5323 51.1885 16.4708C51.2539 16.4093 51.3317 16.3786 51.4219 16.3786C51.5122 16.3786 51.5894 16.4093 51.6535 16.4708C51.7189 16.5323 51.7516 16.6062 51.7516 16.6925C51.7516 16.7788 51.7189 16.8527 51.6535 16.9142C51.5894 16.9757 51.5122 17.0064 51.4219 17.0064ZM52.9607 16.5041V20.5225H52.4977V16.5041H52.9607ZM55.0724 20.5852C54.782 20.5852 54.5315 20.5212 54.3209 20.393C54.1116 20.2635 53.9501 20.083 53.8363 19.8514C53.7238 19.6186 53.6675 19.3478 53.6675 19.0391C53.6675 18.7304 53.7238 18.4584 53.8363 18.2229C53.9501 17.9862 54.1083 17.8017 54.3111 17.6696C54.5151 17.5362 54.7532 17.4695 55.0253 17.4695C55.1823 17.4695 55.3373 17.4956 55.4903 17.548C55.6433 17.6003 55.7826 17.6853 55.9082 17.803C56.0338 17.9195 56.1339 18.0738 56.2084 18.2661C56.283 18.4584 56.3202 18.6951 56.3202 18.9764V19.1726H53.9972V18.7723H55.8494C55.8494 18.6023 55.8153 18.4505 55.7473 18.3171C55.6806 18.1837 55.5851 18.0784 55.4609 18.0012C55.3379 17.924 55.1927 17.8854 55.0253 17.8854C54.8409 17.8854 54.6813 17.9312 54.5465 18.0228C54.4131 18.113 54.3104 18.2308 54.2385 18.376C54.1666 18.5212 54.1306 18.6768 54.1306 18.8429V19.1098C54.1306 19.3374 54.1698 19.5303 54.2483 19.6886C54.3281 19.8455 54.4386 19.9652 54.5799 20.0476C54.7212 20.1287 54.8853 20.1693 55.0724 20.1693C55.194 20.1693 55.3039 20.1523 55.402 20.1183C55.5014 20.083 55.5871 20.0306 55.659 19.9613C55.731 19.8907 55.7866 19.803 55.8258 19.6984L56.2732 19.824C56.2261 19.9757 56.1469 20.1091 56.0358 20.2242C55.9246 20.338 55.7872 20.427 55.6237 20.4911C55.4602 20.5539 55.2764 20.5852 55.0724 20.5852ZM61.2784 16.5041H61.765V19.1647C61.765 19.4394 61.7002 19.6847 61.5707 19.9005C61.4426 20.115 61.2614 20.2844 61.0272 20.4087C60.7931 20.5316 60.5184 20.5931 60.2032 20.5931C59.8879 20.5931 59.6133 20.5316 59.3791 20.4087C59.145 20.2844 58.9632 20.115 58.8337 19.9005C58.7055 19.6847 58.6414 19.4394 58.6414 19.1647V16.5041H59.128V19.1255C59.128 19.3217 59.1711 19.4963 59.2575 19.6493C59.3438 19.8011 59.4668 19.9208 59.6263 20.0084C59.7872 20.0947 59.9795 20.1379 60.2032 20.1379C60.4269 20.1379 60.6191 20.0947 60.78 20.0084C60.9409 19.9208 61.0639 19.8011 61.1489 19.6493C61.2352 19.4963 61.2784 19.3217 61.2784 19.1255V16.5041ZM62.6739 21.6526V17.5087H63.1213V17.9875H63.1762C63.2102 17.9351 63.2573 17.8684 63.3175 17.7873C63.3789 17.7049 63.4666 17.6317 63.5804 17.5676C63.6955 17.5022 63.8512 17.4695 64.0474 17.4695C64.3011 17.4695 64.5248 17.5329 64.7184 17.6598C64.912 17.7867 65.0631 17.9665 65.1716 18.1994C65.2802 18.4322 65.3345 18.7069 65.3345 19.0234C65.3345 19.3426 65.2802 19.6193 65.1716 19.8534C65.0631 20.0862 64.9126 20.2667 64.7203 20.3949C64.5281 20.5218 64.3064 20.5852 64.0552 20.5852C63.8616 20.5852 63.7066 20.5532 63.5902 20.4891C63.4738 20.4237 63.3842 20.3498 63.3214 20.2674C63.2586 20.1837 63.2102 20.1144 63.1762 20.0594H63.137V21.6526H62.6739ZM63.1291 19.0156C63.1291 19.2432 63.1625 19.444 63.2292 19.6179C63.2959 19.7906 63.3933 19.926 63.5215 20.0241C63.6497 20.1209 63.8067 20.1693 63.9924 20.1693C64.186 20.1693 64.3476 20.1183 64.4771 20.0162C64.6079 19.9129 64.706 19.7743 64.7714 19.6003C64.8381 19.425 64.8714 19.2301 64.8714 19.0156C64.8714 18.8037 64.8387 18.6127 64.7733 18.4427C64.7092 18.2713 64.6118 18.1359 64.481 18.0365C64.3515 17.9358 64.1886 17.8854 63.9924 17.8854C63.8041 17.8854 63.6458 17.9332 63.5176 18.0287C63.3894 18.1229 63.2926 18.255 63.2272 18.425C63.1618 18.5937 63.1291 18.7906 63.1291 19.0156ZM66.5039 16.5041V20.5225H66.0408V16.5041H66.5039ZM68.5763 20.5852C68.3042 20.5852 68.0655 20.5205 67.8601 20.391C67.6561 20.2615 67.4965 20.0803 67.3814 19.8475C67.2676 19.6147 67.2107 19.3426 67.2107 19.0313C67.2107 18.7174 67.2676 18.4433 67.3814 18.2092C67.4965 17.975 67.6561 17.7932 67.8601 17.6637C68.0655 17.5342 68.3042 17.4695 68.5763 17.4695C68.8484 17.4695 69.0864 17.5342 69.2905 17.6637C69.4959 17.7932 69.6554 17.975 69.7692 18.2092C69.8843 18.4433 69.9419 18.7174 69.9419 19.0313C69.9419 19.3426 69.8843 19.6147 69.7692 19.8475C69.6554 20.0803 69.4959 20.2615 69.2905 20.391C69.0864 20.5205 68.8484 20.5852 68.5763 20.5852ZM68.5763 20.1693C68.783 20.1693 68.953 20.1163 69.0864 20.0104C69.2199 19.9044 69.3186 19.7651 69.3827 19.5924C69.4468 19.4198 69.4789 19.2327 69.4789 19.0313C69.4789 18.8299 69.4468 18.6421 69.3827 18.4682C69.3186 18.2942 69.2199 18.1536 69.0864 18.0463C68.953 17.9391 68.783 17.8854 68.5763 17.8854C68.3696 17.8854 68.1996 17.9391 68.0662 18.0463C67.9327 18.1536 67.834 18.2942 67.7699 18.4682C67.7058 18.6421 67.6737 18.8299 67.6737 19.0313C67.6737 19.2327 67.7058 19.4198 67.7699 19.5924C67.834 19.7651 67.9327 19.9044 68.0662 20.0104C68.1996 20.1163 68.3696 20.1693 68.5763 20.1693ZM71.5356 20.5931C71.3446 20.5931 71.1713 20.5571 71.0156 20.4852C70.86 20.4119 70.7364 20.3066 70.6448 20.1693C70.5532 20.0306 70.5075 19.8632 70.5075 19.667C70.5075 19.4943 70.5415 19.3544 70.6095 19.2471C70.6775 19.1385 70.7684 19.0535 70.8822 18.992C70.996 18.9306 71.1216 18.8848 71.2589 18.8547C71.3976 18.8233 71.5369 18.7985 71.6769 18.7801C71.86 18.7566 72.0084 18.7389 72.1222 18.7272C72.2374 18.7141 72.3211 18.6925 72.3734 18.6624C72.427 18.6323 72.4538 18.58 72.4538 18.5055V18.4898C72.4538 18.2962 72.4009 18.1457 72.2949 18.0385C72.1903 17.9312 72.0313 17.8776 71.8181 17.8776C71.5971 17.8776 71.4238 17.926 71.2982 18.0228C71.1726 18.1196 71.0843 18.2229 71.0333 18.3328L70.5938 18.1758C70.6723 17.9927 70.7769 17.8501 70.9077 17.7481C71.0398 17.6448 71.1837 17.5728 71.3394 17.5323C71.4963 17.4904 71.6507 17.4695 71.8024 17.4695C71.8992 17.4695 72.0104 17.4813 72.136 17.5048C72.2629 17.527 72.3852 17.5735 72.5029 17.6441C72.6219 17.7147 72.7207 17.8213 72.7992 17.9639C72.8776 18.1065 72.9169 18.2975 72.9169 18.5368V20.5225H72.4538V20.1144H72.4303C72.3989 20.1798 72.3466 20.2497 72.2733 20.3243C72.2001 20.3989 72.1026 20.4623 71.981 20.5146C71.8593 20.5669 71.7109 20.5931 71.5356 20.5931ZM71.6062 20.1771C71.7893 20.1771 71.9437 20.1412 72.0693 20.0692C72.1962 19.9973 72.2916 19.9044 72.3557 19.7906C72.4211 19.6768 72.4538 19.5571 72.4538 19.4316V19.0077C72.4342 19.0313 72.391 19.0529 72.3243 19.0725C72.2589 19.0908 72.1831 19.1072 72.0967 19.1215C72.0117 19.1346 71.9287 19.1464 71.8476 19.1569C71.7678 19.166 71.703 19.1739 71.6533 19.1804C71.533 19.1961 71.4205 19.2216 71.3158 19.2569C71.2125 19.2909 71.1288 19.3426 71.0647 19.4119C71.0019 19.4799 70.9705 19.5728 70.9705 19.6905C70.9705 19.8514 71.03 19.9731 71.1491 20.0555C71.2694 20.1366 71.4218 20.1771 71.6062 20.1771ZM74.9 20.5852C74.6489 20.5852 74.4272 20.5218 74.2349 20.3949C74.0426 20.2667 73.8922 20.0862 73.7836 19.8534C73.6751 19.6193 73.6208 19.3426 73.6208 19.0234C73.6208 18.7069 73.6751 18.4322 73.7836 18.1994C73.8922 17.9665 74.0433 17.7867 74.2369 17.6598C74.4305 17.5329 74.6541 17.4695 74.9079 17.4695C75.1041 17.4695 75.2591 17.5022 75.3729 17.5676C75.488 17.6317 75.5756 17.7049 75.6358 17.7873C75.6973 17.8684 75.745 17.9351 75.779 17.9875H75.8183V16.5041H76.2813V20.5225H75.834V20.0594H75.779C75.745 20.1144 75.6966 20.1837 75.6339 20.2674C75.5711 20.3498 75.4815 20.4237 75.3651 20.4891C75.2486 20.5532 75.0936 20.5852 74.9 20.5852ZM74.9628 20.1693C75.1486 20.1693 75.3055 20.1209 75.4337 20.0241C75.5619 19.926 75.6594 19.7906 75.7261 19.6179C75.7928 19.444 75.8261 19.2432 75.8261 19.0156C75.8261 18.7906 75.7934 18.5937 75.728 18.425C75.6626 18.255 75.5658 18.1229 75.4376 18.0287C75.3095 17.9332 75.1512 17.8854 74.9628 17.8854C74.7666 17.8854 74.6031 17.9358 74.4723 18.0365C74.3428 18.1359 74.2454 18.2713 74.18 18.4427C74.1159 18.6127 74.0838 18.8037 74.0838 19.0156C74.0838 19.2301 74.1165 19.425 74.1819 19.6003C74.2486 19.7743 74.3467 19.9129 74.4762 20.0162C74.607 20.1183 74.7692 20.1693 74.9628 20.1693ZM78.4573 20.5852C78.1669 20.5852 77.9164 20.5212 77.7058 20.393C77.4965 20.2635 77.335 20.083 77.2212 19.8514C77.1087 19.6186 77.0524 19.3478 77.0524 19.0391C77.0524 18.7304 77.1087 18.4584 77.2212 18.2229C77.335 17.9862 77.4932 17.8017 77.696 17.6696C77.9 17.5362 78.1381 17.4695 78.4102 17.4695C78.5671 17.4695 78.7221 17.4956 78.8752 17.548C79.0282 17.6003 79.1675 17.6853 79.2931 17.803C79.4187 17.9195 79.5187 18.0738 79.5933 18.2661C79.6679 18.4584 79.7051 18.6951 79.7051 18.9764V19.1726H77.3821V18.7723H79.2342C79.2342 18.6023 79.2002 18.4505 79.1322 18.3171C79.0655 18.1837 78.97 18.0784 78.8458 18.0012C78.7228 17.924 78.5776 17.8854 78.4102 17.8854C78.2257 17.8854 78.0662 17.9312 77.9314 18.0228C77.798 18.113 77.6953 18.2308 77.6234 18.376C77.5514 18.5212 77.5155 18.6768 77.5155 18.8429V19.1098C77.5155 19.3374 77.5547 19.5303 77.6332 19.6886C77.713 19.8455 77.8235 19.9652 77.9648 20.0476C78.1061 20.1287 78.2702 20.1693 78.4573 20.1693C78.5789 20.1693 78.6888 20.1523 78.7869 20.1183C78.8863 20.083 78.972 20.0306 79.0439 19.9613C79.1159 19.8907 79.1715 19.803 79.2107 19.6984L79.6581 19.824C79.611 19.9757 79.5318 20.1091 79.4206 20.2242C79.3095 20.338 79.1721 20.427 79.0086 20.4911C78.8451 20.5539 78.6613 20.5852 78.4573 20.5852ZM80.4095 20.5225V17.5087H80.8569V17.9639H80.8883C80.9432 17.8148 81.0426 17.6938 81.1865 17.6009C81.3304 17.5081 81.4926 17.4616 81.6731 17.4616C81.7071 17.4616 81.7496 17.4623 81.8006 17.4636C81.8516 17.4649 81.8902 17.4669 81.9164 17.4695V17.9404C81.9007 17.9365 81.8647 17.9306 81.8085 17.9227C81.7535 17.9136 81.6953 17.909 81.6339 17.909C81.4874 17.909 81.3566 17.9397 81.2414 18.0012C81.1276 18.0614 81.0374 18.1451 80.9707 18.2523C80.9053 18.3583 80.8726 18.4793 80.8726 18.6153V20.5225H80.4095Z" fill="#F2B02E"/>
<path d="M32.3809 34.5324C39.3628 31.3223 38.9387 24.0599 34.8906 19.1505C32.2381 15.9362 29.298 13.4858 27.6084 10.9211C27.6062 10.9169 27.6042 10.9149 27.5998 10.9105C26.2853 8.91082 25.7314 6.84123 26.6709 4.28721C27.3761 2.5753 29.594 0.374581 31.7863 0C32.3295 5.03637 37.5303 9.38695 40.7261 13.4244C46.7132 20.9831 45.0683 32.027 32.3809 34.5324Z" fill="url(#paint0_linear_11_253)"/>
<path d="M31.7866 0C31.8493 0.458646 31.9414 0.912193 32.0689 1.35627C32.201 1.79874 32.3524 2.23554 32.5387 2.65805C32.9079 3.50439 33.3678 4.30935 33.8847 5.07483C34.9098 6.61424 36.1306 8.01437 37.3688 9.39264C37.9899 10.0812 38.6185 10.7641 39.2337 11.4603C39.8474 12.1582 40.4616 12.8565 41.0254 13.6013C41.5995 14.339 42.1015 15.1318 42.535 15.9594C42.9677 16.7868 43.3409 17.6489 43.6086 18.5453C44.1449 20.333 44.3547 22.236 44.0823 24.0915C43.8198 25.9405 43.114 27.7448 41.9623 29.2273C41.3933 29.9705 40.7431 30.6528 40.0161 31.2429C39.2853 31.8268 38.5039 32.347 37.6751 32.7798C36.8397 33.1971 35.9823 33.5744 35.09 33.8489C34.6505 34.006 34.196 34.1139 33.7467 34.2369C33.523 34.302 33.2924 34.3403 33.065 34.3902L32.381 34.5324C34.1975 34.1306 35.9807 33.5435 37.607 32.6541C38.4207 32.2118 39.1859 31.6877 39.8973 31.1017C40.6052 30.5102 41.234 29.8301 41.781 29.094C42.8804 27.6218 43.5737 25.8672 43.8178 24.0556C44.0758 22.241 43.8608 20.3796 43.3283 18.63C43.0702 17.7503 42.7079 16.9025 42.2866 16.0874C41.8646 15.2724 41.3746 14.4899 40.8127 13.7611C39.6962 12.2924 38.4156 10.9433 37.2003 9.54037C35.9805 8.1417 34.7722 6.71885 33.7647 5.15234C33.2628 4.36967 32.8184 3.54781 32.4671 2.68763C32.2901 2.25812 32.1475 1.81521 32.0262 1.36763C31.9126 0.917876 31.8347 0.460103 31.7866 0Z" fill="url(#paint1_linear_11_253)"/>
<path d="M31.8593 11.1263C30.1355 9.95611 29.2172 8.31617 29.2172 8.31617C29.0212 9.40378 29.0405 10.3814 29.117 11.1157C27.4659 8.96568 26.8288 7.09307 27.7067 4.68488C28.1946 3.51466 29.5326 2.10536 30.9216 1.43677C31.7504 4.72728 34.2178 7.6856 36.5953 10.356C33.2674 9.70639 31.4566 7.80187 31.4566 7.80187C31.3884 9.27688 31.8593 11.1263 31.8593 11.1263Z" fill="url(#paint2_linear_11_253)"/>
<path d="M41.1929 26.4554C40.2127 29.8051 38.0929 32.774 32.3808 34.5324C39.3628 31.3223 38.9387 24.0599 34.8906 19.1506C32.2381 15.9362 29.298 13.4858 27.6084 10.9211C31.0492 15.8093 32.8153 15.056 38.3633 20.7271L38.5806 19.3136C41.1373 23.0316 39.8333 27.4817 39.8333 27.4817L41.1929 26.4554Z" fill="url(#paint3_linear_11_253)"/>
<path d="M31.8593 11.1263C30.1355 9.95611 29.2172 8.31617 29.2172 8.31617C29.0212 9.40378 29.0405 10.3814 29.117 11.1157C27.4659 8.96568 26.8288 7.09307 27.7067 4.68488C28.1946 3.51466 29.5326 2.10536 30.9216 1.43677C29.307 3.35819 29.2526 5.33016 29.7421 6.68075C29.7421 6.68075 30.014 5.60013 31.0476 4.95194C31.0476 4.95194 32.7369 8.8768 36.5952 10.356C33.2672 9.70639 31.4565 7.80187 31.4565 7.80187C31.3884 9.27688 31.8593 11.1263 31.8593 11.1263Z" fill="url(#paint4_linear_11_253)"/>
<path d="M30.5347 14.2402C31.2001 14.7684 31.8927 15.256 32.5971 15.7305C33.297 16.2112 33.9954 16.6984 34.669 17.2195C35.3458 17.7366 35.9948 18.2892 36.6297 18.8561C37.2638 19.4243 37.8681 20.0237 38.4688 20.6256L38.2189 20.705L38.4401 19.292L38.4999 18.91L38.6988 19.2336L38.9823 19.6947L39.1239 19.9254C39.168 20.0039 39.2038 20.0868 39.244 20.1674L39.4793 20.654C39.5477 20.8204 39.608 20.9901 39.6724 21.158L39.7673 21.4103L39.8415 21.6693C39.8893 21.8424 39.9433 22.0139 39.983 22.1887L40.0884 22.7162C40.128 22.8911 40.139 23.0706 40.1654 23.2475C40.2496 23.9578 40.2678 24.675 40.2101 25.3854C40.1492 26.0945 40.0397 26.8017 39.8339 27.4814C39.9852 26.7888 40.0656 26.0836 40.0868 25.3787C40.1057 24.6737 40.0656 23.9687 39.9594 23.2752C39.9286 23.1025 39.9135 22.9271 39.8699 22.757L39.7529 22.2445C39.7101 22.0748 39.6511 21.9096 39.6027 21.7416L39.5264 21.4906L39.4299 21.2468C39.3644 21.0848 39.3033 20.9209 39.2345 20.7605L38.9986 20.2927C38.9583 20.2153 38.9225 20.1353 38.8785 20.0601L38.7401 19.8378L38.4636 19.393L38.7224 19.3346L38.5089 20.7487L38.4654 21.0367L38.259 20.8281C37.6643 20.2271 37.0662 19.6292 36.4418 19.0595C35.8223 18.4843 35.1817 17.9326 34.5264 17.3977C33.8695 16.8646 33.1929 16.355 32.5128 15.8467C31.8371 15.3329 31.1565 14.8188 30.5347 14.2402Z" fill="url(#paint5_linear_11_253)"/>
<path d="M10.8385 7.09798C10.1571 7.50024 9.39797 8.03931 8.58046 8.73471C8.14215 7.81086 7.77674 6.68056 7.50977 5.48353C8.95145 3.63161 10.2146 2.8877 10.2146 2.8877C10.2312 3.80819 10.3829 5.44842 10.8385 7.09798Z" fill="#EC4900"/>
<path d="M10.8385 7.09798C10.1571 7.50024 9.39797 8.03931 8.58046 8.73471C8.14215 7.81086 7.77674 6.68056 7.50977 5.48353C8.95145 3.63161 10.2146 2.8877 10.2146 2.8877C10.2312 3.80819 10.3829 5.44842 10.8385 7.09798Z" fill="url(#paint6_linear_11_253)"/>
<path d="M10.1456 7.29726C9.77548 6.20367 9.6103 5.10484 9.5638 4.48535C9.5638 4.48535 8.74175 5.03418 7.8418 6.33596L8.41096 8.42581L10.1894 7.72837" fill="url(#paint7_linear_11_253)"/>
<path d="M16.1015 34.5324C15.9246 34.5324 15.7479 34.5302 15.5754 34.526C-0.527518 34.1642 -2.67933 17.9952 2.94319 10.9211C4.41759 9.06746 3.46952 4.7718 8.02032 1.57861C7.94375 2.43763 7.93509 3.34545 7.99054 4.2237C8.0545 5.29018 8.21219 6.31441 8.46142 7.17139C9.2625 6.68462 9.99331 6.32286 10.6345 6.07096C11.719 5.63708 12.5584 5.50377 13.0932 5.53772C13.7388 5.58215 14.4184 6.19159 15.4879 6.44976C17.7399 6.07096 19.5403 5.42349 21.8113 4.28722C23.9568 10.1191 18.3194 13.4265 13.5916 19.1505C9.54371 24.0599 9.11962 31.3223 16.1015 34.5324Z" fill="url(#paint8_linear_11_253)"/>
<path d="M15.5753 34.526L14.1857 34.4728C13.7239 34.4337 13.2633 34.3756 12.8015 34.3278C12.343 34.258 11.8874 34.167 11.4295 34.0876C10.9793 33.9748 10.5271 33.8648 10.0797 33.7386C8.30252 33.1914 6.61733 32.3273 5.1604 31.1635C4.45012 30.5632 3.76419 29.9229 3.1962 29.1831C2.88976 28.8311 2.64303 28.4349 2.37356 28.0555C2.24667 27.8606 2.13489 27.6563 2.01475 27.4572L1.83755 27.1566C1.78078 27.0552 1.73266 26.9491 1.67985 26.8457L1.36946 26.2209L1.10277 25.5767C1.05935 25.469 1.01182 25.3627 0.971922 25.2537L0.860585 24.9234C0.788559 24.7027 0.707292 24.4846 0.642895 24.2615C0.525835 23.8123 0.392053 23.3665 0.31328 22.9084L0.245068 22.5669L0.211183 22.3962L0.187565 22.2237L0.0932429 21.5337C-0.0978957 19.688 -0.000492327 17.8087 0.43474 16.0025C0.651696 15.1008 0.935104 14.2109 1.32926 13.3678C1.71902 12.5252 2.17567 11.7053 2.76229 10.9781C3.34759 10.2833 3.55735 9.36963 3.78429 8.48439C4.00403 7.59215 4.22451 6.68943 4.57011 5.82779C4.91395 4.96689 5.38102 4.15318 5.96617 3.43374C6.26028 3.07533 6.58374 2.74228 6.92626 2.43093C7.26981 2.12016 7.64197 1.84378 8.02028 1.57861C7.27495 2.12497 6.59371 2.75772 6.02704 3.48167C5.46434 4.2084 5.02324 5.02181 4.70419 5.87922C4.37765 6.73532 4.17111 7.63004 3.96442 8.52722C3.85983 8.97582 3.75143 9.42645 3.60136 9.86936C3.52362 10.0898 3.43985 10.3101 3.32778 10.5199C3.27644 10.6267 3.21058 10.7272 3.14677 10.8282L2.94125 11.1145L2.54108 11.6699L2.18432 12.2539L2.09499 12.3998L2.01534 12.5512L1.85735 12.8546L1.69922 13.1581C1.65008 13.261 1.6071 13.3668 1.56059 13.4709C1.17773 14.2998 0.903711 15.1757 0.694676 16.063C0.274993 17.8403 0.189326 19.6896 0.384425 21.5019L0.473907 22.1801L0.496204 22.3497L0.528769 22.5175L0.59434 22.8534C0.669152 23.3039 0.798974 23.742 0.911633 24.184C0.973683 24.4034 1.0526 24.6177 1.12228 24.835L1.22995 25.1597C1.26853 25.2669 1.31503 25.3714 1.35699 25.4775L1.61575 26.1112L1.91764 26.7258C1.96898 26.8276 2.01563 26.9321 2.07093 27.0319L2.24344 27.3276C2.36035 27.5236 2.46905 27.725 2.59271 27.9167C2.85558 28.29 3.09557 28.6803 3.39482 29.0269C3.95107 29.7535 4.61485 30.3898 5.30386 30.9917C6.71943 32.1568 8.37029 33.033 10.1231 33.6033C11.8759 34.184 13.7257 34.4447 15.5753 34.526Z" fill="url(#paint9_linear_11_253)"/>
<path d="M16.1012 34.5323C-0.139989 32.7739 1.38325 15.1807 8.25426 11.9388C7.33011 11.7774 5.62571 11.7953 5.62571 11.7953C7.94665 9.12999 18.8986 9.09401 21.811 4.28711C23.9565 10.119 18.319 13.4264 13.5913 19.1504C9.54339 24.0597 9.1193 31.3222 16.1012 34.5323Z" fill="url(#paint10_linear_11_253)"/>
<path d="M16.2423 14.6075C15.0896 15.8051 13.9008 17.043 12.7354 18.4545C10.1297 21.6117 9.03669 25.4968 9.80799 28.8444C10.151 30.3235 10.8307 31.6441 11.8235 32.7741C8.3933 31.6272 5.73232 25.9773 6.5824 21.2498C6.00282 22.1386 5.52138 23.1057 5.19118 24.1129C3.95751 11.8311 18.8395 11.1286 21.0937 5.85107C21.6049 8.83898 19.5936 11.1222 16.2423 14.6075Z" fill="url(#paint11_linear_11_253)"/>
<path d="M16.2421 14.6075C15.0894 15.8051 13.9006 17.043 12.7351 18.4545C10.1294 21.6117 9.03645 25.4968 9.80775 28.8444C10.1507 30.3235 10.8305 31.6441 11.8233 32.7741C6.61619 28.7747 7.84209 20.8002 10.8384 17.0183C9.96911 17.234 8.53095 18.2131 8.53095 18.2131C10.8384 13.2003 21.1724 10.9212 21.0934 5.85107C21.6047 8.83898 19.5934 11.1222 16.2421 14.6075Z" fill="url(#paint12_linear_11_253)"/>
<path d="M6.58226 21.2497C6.02572 22.1568 5.56203 23.1207 5.25148 24.1322L5.16185 24.4244L5.12768 24.119C5.06753 23.5828 5.03409 23.0432 5.0357 22.5024C5.04113 21.9617 5.07721 21.4206 5.15232 20.8835C5.30488 19.8101 5.62643 18.7552 6.12283 17.7845C6.61439 16.8112 7.26981 15.9245 8.02395 15.1394C8.40065 14.746 8.80141 14.3764 9.21875 14.0273C9.63799 13.6806 10.0744 13.3559 10.5209 13.0469C12.3117 11.8139 14.25 10.835 16.1584 9.83305C17.1103 9.32705 18.0526 8.80197 18.9334 8.18685C19.3707 7.87652 19.7934 7.54215 20.167 7.15752C20.3558 6.96695 20.5254 6.75904 20.686 6.54443C20.8418 6.32604 20.9785 6.09453 21.0935 5.85107C20.9906 6.09948 20.8647 6.33886 20.7184 6.56643C20.5674 6.79037 20.4016 7.00556 20.2185 7.20531C19.855 7.60771 19.44 7.96102 19.0098 8.29044C18.1418 8.94242 17.1996 9.48339 16.2583 10.0143L13.4223 11.5775C12.4838 12.1059 11.5607 12.6601 10.6827 13.2764C10.2438 13.5844 9.8171 13.9084 9.40651 14.2507C8.99401 14.5906 8.59854 14.9503 8.22682 15.3326C7.4831 16.0959 6.83809 16.9558 6.35211 17.9006C5.86744 18.8451 5.53122 19.8646 5.35593 20.9147C5.27055 21.4401 5.22317 21.9719 5.20601 22.5051C5.19163 23.0388 5.2173 23.5729 5.25427 24.1066L5.13046 24.0932C5.48384 23.0834 5.97687 22.1262 6.58226 21.2497Z" fill="url(#paint13_linear_11_253)"/>
<path d="M16.1014 34.5323C14.7898 34.4128 13.4829 34.1803 12.2199 33.7876C10.9557 33.4007 9.74259 32.8381 8.63213 32.1137C8.07676 31.7517 7.55278 31.341 7.06518 30.8911C6.57992 30.4386 6.13252 29.9457 5.73 29.4187C4.92407 28.3647 4.30269 27.1741 3.88198 25.919C3.45687 24.6642 3.24387 23.3434 3.21204 22.0232C3.18065 20.7024 3.33233 19.3776 3.67089 18.1001C4.00843 16.8238 4.54092 15.5923 5.28934 14.499C6.02939 13.4073 7.0222 12.4513 8.23445 11.897L8.24634 11.9843C7.818 11.9069 7.37939 11.8723 6.94181 11.8453C6.50394 11.8195 6.06489 11.8016 5.6257 11.7953C6.06489 11.7846 6.50453 11.7812 6.94416 11.7934C7.38379 11.807 7.82372 11.828 8.26247 11.8934L8.40549 11.9147L8.27435 11.9805C7.69111 12.2737 7.15569 12.6557 6.68759 13.1066C6.21422 13.5524 5.80129 14.0594 5.44615 14.6029C4.72795 15.6876 4.24255 16.9101 3.91543 18.1631C3.26705 20.6754 3.34817 23.3693 4.15263 25.8302C4.55632 27.06 5.15643 28.2273 5.938 29.2628C6.32835 29.7807 6.76314 30.2658 7.23549 30.7117C7.70607 31.1595 8.21142 31.5732 8.7511 31.9391C9.82855 32.6738 11.0185 33.2452 12.2611 33.662C13.5013 34.0932 14.797 34.3529 16.1014 34.5323Z" fill="url(#paint14_linear_11_253)"/>
<path d="M21.5628 32.6067L20.9728 33.1927C20.9265 33.1468 20.8826 33.1008 20.8363 33.0571L16.652 28.9013L14.0552 26.3244L16.652 23.7427L19.2466 26.3244L20.2366 27.3052L21.563 28.6201C22.6699 29.7223 22.6699 31.5072 21.5628 32.6067Z" fill="url(#paint15_linear_11_253)"/>
<path d="M20.8363 33.0571L16.652 28.9013L14.0552 26.3244L16.652 23.7427L19.2466 26.3244L20.2366 27.3052C18.7662 28.8117 18.059 30.2309 20.8363 33.0571Z" fill="url(#paint16_linear_11_253)"/>
<path d="M21.563 24.0236L18.4687 27.0971C17.4958 28.0633 17.4641 29.6109 18.3785 30.6111C18.4053 30.6427 18.437 30.6742 18.4687 30.7055L14.0552 26.3245L16.652 23.7427L20.973 19.4512L21.563 20.0372C22.6701 21.1369 22.6701 22.9218 21.563 24.0236Z" fill="url(#paint17_linear_11_253)"/>
<path d="M21.5629 24.0237L18.4686 27.0972C17.4958 28.0634 17.4641 29.611 18.3784 30.6112C13.5405 25.6755 21.702 22.9291 20.9729 19.4514L21.5629 20.0374C22.67 21.137 22.67 22.9219 21.5629 24.0237Z" fill="url(#paint18_linear_11_253)"/>
<path d="M21.5628 24.0234C21.1178 24.5507 20.6523 25.0577 20.1797 25.5575C19.7084 26.0584 19.2247 26.5475 18.7389 27.0342L18.5565 27.2146C18.5024 27.275 18.4443 27.3323 18.393 27.3948C18.3455 27.4604 18.2922 27.5223 18.2486 27.5905C18.2079 27.6604 18.1603 27.727 18.124 27.7994C17.9677 28.0844 17.8756 28.4024 17.8386 28.7275C17.7685 29.3795 17.9578 30.0631 18.3785 30.6109C17.8642 30.1455 17.5755 29.4265 17.6102 28.7113C17.6223 28.3532 17.7182 27.998 17.8769 27.6732C17.9136 27.5905 17.9666 27.5162 18.0111 27.4374C18.0591 27.3606 18.1169 27.2903 18.1697 27.2166C18.2262 27.1458 18.2897 27.0807 18.3499 27.0128C18.4107 26.9485 18.471 26.8898 18.5318 26.8282C19.0219 26.3457 19.5141 25.8655 20.0186 25.3973C20.5216 24.9278 21.032 24.4656 21.5628 24.0234Z" fill="url(#paint19_linear_11_253)"/>
<path d="M26.8873 20.0374L27.4775 19.4514C27.5237 19.4975 27.5676 19.5433 27.6141 19.5871L31.7983 23.7428L34.3951 26.3197L31.7983 28.9015L29.2037 26.3197L28.2137 25.3389L26.8872 24.0239C25.7804 22.9217 25.7804 21.1368 26.8873 20.0374Z" fill="url(#paint20_linear_11_253)"/>
<path d="M27.6143 19.5867L31.7985 23.7425L34.3953 26.3194L31.7985 28.9011L29.204 26.3194L28.2139 25.3385C29.6844 23.8322 30.3916 22.413 27.6143 19.5867Z" fill="url(#paint21_linear_11_253)"/>
<path d="M26.8873 28.6203L29.9818 25.547C30.9548 24.5806 30.9864 23.0332 30.072 22.0329C30.045 22.0014 30.0134 21.9699 29.9818 21.9385L34.3953 26.3197L31.7984 28.9014L27.4776 33.1928L26.8875 32.6068C25.7804 31.5073 25.7804 29.7223 26.8873 28.6203Z" fill="url(#paint22_linear_11_253)"/>
<path d="M26.8873 28.6201L29.9818 25.5469C30.9548 24.5805 30.9865 23.0331 30.072 22.0327C34.9097 26.9684 26.7484 29.7147 27.4775 33.1925L26.8873 32.6065C25.7804 31.5071 25.7804 29.7222 26.8873 28.6201Z" fill="url(#paint23_linear_11_253)"/>
<path d="M26.8872 28.6202C27.3323 28.0931 27.7977 27.5861 28.2705 27.0864C28.742 26.5855 29.2255 26.0964 29.7112 25.6096L29.8935 25.4291C29.9476 25.3688 30.0059 25.3115 30.0571 25.2489C30.1047 25.1835 30.158 25.1215 30.2015 25.0532C30.2423 24.9834 30.2899 24.9168 30.3262 24.8444C30.4825 24.5594 30.5746 24.2414 30.6115 23.9164C30.6818 23.2644 30.4924 22.5808 30.0717 22.033C30.586 22.4983 30.8746 23.2173 30.8398 23.9327C30.8279 24.2908 30.7318 24.646 30.5731 24.9707C30.5364 25.0535 30.4836 25.1278 30.4389 25.2066C30.3911 25.2834 30.3331 25.3536 30.2805 25.4274C30.224 25.4982 30.1605 25.5633 30.1003 25.6312C30.0395 25.6953 29.9793 25.7541 29.9184 25.8156C29.4283 26.2983 28.936 26.7784 28.4316 27.2466C27.9286 27.7161 27.4181 28.1784 26.8872 28.6202Z" fill="url(#paint24_linear_11_253)"/>
<defs>
<linearGradient id="paint0_linear_11_253" x1="33.7623" y1="-0.182512" x2="36.9308" y2="34.1121" gradientUnits="userSpaceOnUse">
<stop stop-color="#FF6624"/>
<stop offset="0.2454" stop-color="#EE5C1D"/>
<stop offset="0.7269" stop-color="#C3440B"/>
<stop offset="1" stop-color="#A83400"/>
</linearGradient>
<linearGradient id="paint1_linear_11_253" x1="35.6175" y1="-0.353877" x2="38.7996" y2="34.0872" gradientUnits="userSpaceOnUse">
<stop stop-color="#A83400"/>
<stop offset="0.2731" stop-color="#C3440B"/>
<stop offset="0.7546" stop-color="#EE5C1D"/>
<stop offset="1" stop-color="#FF6624"/>
</linearGradient>
<linearGradient id="paint2_linear_11_253" x1="31.1531" y1="0.130004" x2="32.5841" y2="15.6189" gradientUnits="userSpaceOnUse">
<stop stop-color="white"/>
<stop offset="0.2101" stop-color="#EEEEEE"/>
<stop offset="0.6219" stop-color="#C3C3C3"/>
<stop offset="1" stop-color="#969696"/>
</linearGradient>
<linearGradient id="paint3_linear_11_253" x1="34.1445" y1="1.88875" x2="34.5738" y2="30.4154" gradientUnits="userSpaceOnUse">
<stop stop-color="#FF6624"/>
<stop offset="0.1843" stop-color="#EE5E1F"/>
<stop offset="0.5478" stop-color="#C34712"/>
<stop offset="1" stop-color="#852800"/>
</linearGradient>
<linearGradient id="paint4_linear_11_253" x1="33.8239" y1="0.821208" x2="31.3864" y2="10.6005" gradientUnits="userSpaceOnUse">
<stop stop-color="white"/>
<stop offset="0.1567" stop-color="#EEEEEE"/>
<stop offset="0.4656" stop-color="#C3C3C3"/>
<stop offset="0.8935" stop-color="#7D7D7D"/>
<stop offset="1" stop-color="#6B6B6B"/>
</linearGradient>
<linearGradient id="paint5_linear_11_253" x1="34.883" y1="13.7376" x2="36.1889" y2="27.872" gradientUnits="userSpaceOnUse">
<stop stop-color="#FF6624"/>
<stop offset="0.2454" stop-color="#EE5C1D"/>
<stop offset="0.7269" stop-color="#C3440B"/>
<stop offset="1" stop-color="#A83400"/>
</linearGradient>
<linearGradient id="paint6_linear_11_253" x1="9.08903" y1="0.708047" x2="9.19457" y2="7.72141" gradientUnits="userSpaceOnUse">
<stop stop-color="#FF6624"/>
<stop offset="0.1843" stop-color="#EE5E1F"/>
<stop offset="0.5478" stop-color="#C34712"/>
<stop offset="1" stop-color="#852800"/>
</linearGradient>
<linearGradient id="paint7_linear_11_253" x1="9.13121" y1="4.22262" x2="9.02388" y2="6.87001" gradientUnits="userSpaceOnUse">
<stop stop-color="white"/>
<stop offset="0.2101" stop-color="#EEEEEE"/>
<stop offset="0.6219" stop-color="#C3C3C3"/>
<stop offset="1" stop-color="#969696"/>
</linearGradient>
<linearGradient id="paint8_linear_11_253" x1="10.0765" y1="1.3887" x2="13.1637" y2="34.8039" gradientUnits="userSpaceOnUse">
<stop stop-color="#FF6624"/>
<stop offset="0.2454" stop-color="#EE5C1D"/>
<stop offset="0.7269" stop-color="#C3440B"/>
<stop offset="1" stop-color="#A83400"/>
</linearGradient>
<linearGradient id="paint9_linear_11_253" x1="5.36749" y1="1.69702" x2="8.47463" y2="35.3276" gradientUnits="userSpaceOnUse">
<stop stop-color="#A83400"/>
<stop offset="0.2731" stop-color="#C3440B"/>
<stop offset="0.7546" stop-color="#EE5C1D"/>
<stop offset="1" stop-color="#FF6624"/>
</linearGradient>
<linearGradient id="paint10_linear_11_253" x1="12.4893" y1="-6.94958" x2="13.0359" y2="29.3777" gradientUnits="userSpaceOnUse">
<stop stop-color="#FF6624"/>
<stop offset="0.1843" stop-color="#EE5E1F"/>
<stop offset="0.5478" stop-color="#C34712"/>
<stop offset="1" stop-color="#852800"/>
</linearGradient>
<linearGradient id="paint11_linear_11_253" x1="15.364" y1="3.5881" x2="8.92133" y2="35.3733" gradientUnits="userSpaceOnUse">
<stop stop-color="white"/>
<stop offset="0.2101" stop-color="#EEEEEE"/>
<stop offset="0.6219" stop-color="#C3C3C3"/>
<stop offset="1" stop-color="#969696"/>
</linearGradient>
<linearGradient id="paint12_linear_11_253" x1="17.7929" y1="1.16351" x2="10.7577" y2="29.3887" gradientUnits="userSpaceOnUse">
<stop stop-color="white"/>
<stop offset="0.1567" stop-color="#EEEEEE"/>
<stop offset="0.4656" stop-color="#C3C3C3"/>
<stop offset="0.8935" stop-color="#7D7D7D"/>
<stop offset="1" stop-color="#6B6B6B"/>
</linearGradient>
<linearGradient id="paint13_linear_11_253" x1="12.3233" y1="6.59199" x2="13.9319" y2="24.0026" gradientUnits="userSpaceOnUse">
<stop stop-color="#FF6624"/>
<stop offset="0.2454" stop-color="#EE5C1D"/>
<stop offset="0.7269" stop-color="#C3440B"/>
<stop offset="1" stop-color="#A83400"/>
</linearGradient>
<linearGradient id="paint14_linear_11_253" x1="8.06121" y1="11.4247" x2="10.2593" y2="35.2155" gradientUnits="userSpaceOnUse">
<stop stop-color="#FF6624"/>
<stop offset="0.2454" stop-color="#EE5C1D"/>
<stop offset="0.7269" stop-color="#C3440B"/>
<stop offset="1" stop-color="#A83400"/>
</linearGradient>
<linearGradient id="paint15_linear_11_253" x1="23.129" y1="34.9577" x2="17.1409" y2="26.3751" gradientUnits="userSpaceOnUse">
<stop stop-color="#FF6624"/>
<stop offset="0.1843" stop-color="#EE5E1F"/>
<stop offset="0.5478" stop-color="#C34712"/>
<stop offset="1" stop-color="#852800"/>
</linearGradient>
<linearGradient id="paint16_linear_11_253" x1="24.9521" y1="32.3992" x2="18.0695" y2="27.9043" gradientUnits="userSpaceOnUse">
<stop stop-color="#FF6624"/>
<stop offset="0.1843" stop-color="#EE5E1F"/>
<stop offset="0.5478" stop-color="#C34712"/>
<stop offset="1" stop-color="#852800"/>
</linearGradient>
<linearGradient id="paint17_linear_11_253" x1="17.8152" y1="19.7431" x2="18.825" y2="30.6727" gradientUnits="userSpaceOnUse">
<stop stop-color="#FF6624"/>
<stop offset="0.2454" stop-color="#EE5C1D"/>
<stop offset="0.7269" stop-color="#C3440B"/>
<stop offset="1" stop-color="#A83400"/>
</linearGradient>
<linearGradient id="paint18_linear_11_253" x1="21.1471" y1="16.8488" x2="18.9045" y2="28.572" gradientUnits="userSpaceOnUse">
<stop stop-color="#FF6624"/>
<stop offset="0.2454" stop-color="#EE5C1D"/>
<stop offset="0.7269" stop-color="#C3440B"/>
<stop offset="1" stop-color="#A83400"/>
</linearGradient>
<linearGradient id="paint19_linear_11_253" x1="19.3633" y1="24.1143" x2="19.9582" y2="30.553" gradientUnits="userSpaceOnUse">
<stop stop-color="#FF6624"/>
<stop offset="0.2454" stop-color="#EE5C1D"/>
<stop offset="0.7269" stop-color="#C3440B"/>
<stop offset="1" stop-color="#A83400"/>
</linearGradient>
<linearGradient id="paint20_linear_11_253" x1="25.3212" y1="17.6864" x2="31.3093" y2="26.269" gradientUnits="userSpaceOnUse">
<stop stop-color="#FF6624"/>
<stop offset="0.1843" stop-color="#EE5E1F"/>
<stop offset="0.5478" stop-color="#C34712"/>
<stop offset="1" stop-color="#852800"/>
</linearGradient>
<linearGradient id="paint21_linear_11_253" x1="23.4986" y1="20.2445" x2="30.3811" y2="24.7394" gradientUnits="userSpaceOnUse">
<stop stop-color="#FF6624"/>
<stop offset="0.1843" stop-color="#EE5E1F"/>
<stop offset="0.5478" stop-color="#C34712"/>
<stop offset="1" stop-color="#852800"/>
</linearGradient>
<linearGradient id="paint22_linear_11_253" x1="30.6351" y1="32.9011" x2="29.6253" y2="21.9714" gradientUnits="userSpaceOnUse">
<stop stop-color="#FF6624"/>
<stop offset="0.2454" stop-color="#EE5C1D"/>
<stop offset="0.7269" stop-color="#C3440B"/>
<stop offset="1" stop-color="#A83400"/>
</linearGradient>
<linearGradient id="paint23_linear_11_253" x1="27.3033" y1="35.7953" x2="29.546" y2="24.0721" gradientUnits="userSpaceOnUse">
<stop stop-color="#FF6624"/>
<stop offset="0.2454" stop-color="#EE5C1D"/>
<stop offset="0.7269" stop-color="#C3440B"/>
<stop offset="1" stop-color="#A83400"/>
</linearGradient>
<linearGradient id="paint24_linear_11_253" x1="29.0868" y1="28.5296" x2="28.492" y2="22.0911" gradientUnits="userSpaceOnUse">
<stop stop-color="#FF6624"/>
<stop offset="0.2454" stop-color="#EE5C1D"/>
<stop offset="0.7269" stop-color="#C3440B"/>
<stop offset="1" stop-color="#A83400"/>
</linearGradient>
</defs>
</svg>
